<?xml version="1.0" encoding="UTF-8"?>
<!DOCTYPE svg PUBLIC "-//W3C//DTD SVG 1.1//EN" "http://www.w3.org/Graphics/SVG/1.1/DTD/svg11.dtd">
<svg xmlns="http://www.w3.org/2000/svg" version="1.1" width="327px" height="327px" style="shape-rendering:geometricPrecision; text-rendering:geometricPrecision; image-rendering:optimizeQuality; fill-rule:evenodd; clip-rule:evenodd" xmlns:xlink="http://www.w3.org/1999/xlink">
<g><path style="opacity:0.475" fill="#62513c" d="M 205.5,45.5 C 204.662,45.8417 204.328,46.5084 204.5,47.5C 199.995,44.4135 195.328,41.5802 190.5,39C 196.208,39.5203 201.208,41.687 205.5,45.5 Z"/></g>
<g><path style="opacity:0.973" fill="#8b5932" d="M 205.5,45.5 C 247.005,74.484 269.338,114.484 272.5,165.5C 270.533,165.739 268.699,165.406 267,164.5C 265.18,140.217 258.847,117.217 248,95.5C 235.425,77.7583 220.925,61.7583 204.5,47.5C 204.328,46.5084 204.662,45.8417 205.5,45.5 Z"/></g>
<g><path style="opacity:0.994" fill="#8b5932" d="M 119.5,106.5 C 145.833,106.5 172.167,106.5 198.5,106.5C 198.703,108.39 198.037,109.89 196.5,111C 194.212,111.822 191.878,112.489 189.5,113C 181.254,113.815 173.088,113.648 165,112.5C 164.833,112.833 164.667,113.167 164.5,113.5C 169.833,114.167 175.167,114.833 180.5,115.5C 177.5,117.667 174.5,119.833 171.5,122C 178.204,121.749 184.537,123.082 190.5,126C 192.146,127.555 192.479,129.221 191.5,131C 184.167,131.333 176.833,131.667 169.5,132C 182.675,133.48 196.008,133.98 209.5,133.5C 208.974,136.707 207.308,139.207 204.5,141C 199.058,143.222 193.392,144.556 187.5,145C 189.332,145.748 190.999,146.748 192.5,148C 185.167,148.333 177.833,148.667 170.5,149C 175.645,150.446 180.979,150.946 186.5,150.5C 186.128,154.043 184.128,156.21 180.5,157C 186.778,158.139 191.778,161.306 195.5,166.5C 231.507,167.22 267.507,167.887 303.5,168.5C 303.231,166.571 303.731,164.905 305,163.5C 309.84,165.087 314.674,166.754 319.5,168.5C 319.291,169.086 318.957,169.586 318.5,170C 313.554,171.816 308.554,173.316 303.5,174.5C 303.5,173.167 303.5,171.833 303.5,170.5C 224.31,170.447 145.31,170.447 66.5,170.5C 64.0087,169.459 64.0087,168.626 66.5,168C 66.0426,167.586 65.7093,167.086 65.5,166.5C 70.2205,165.187 74.8871,165.353 79.5,167C 90.1667,167.667 100.833,167.667 111.5,167C 112.551,165.615 113.884,164.615 115.5,164C 121.69,162.729 127.857,162.229 134,162.5C 134.233,160.22 135.066,158.22 136.5,156.5C 136.291,155.914 135.957,155.414 135.5,155C 137.5,152.667 139.5,150.333 141.5,148C 139.146,142.124 136.646,136.29 134,130.5C 128.182,139.174 120.348,142.34 110.5,140C 110.163,142.637 109.663,145.137 109,147.5C 104.99,152.341 100.823,157.008 96.5,161.5C 90.8567,156.88 87.8567,150.88 87.5,143.5C 87.7832,131.094 93.1165,121.594 103.5,115C 108.483,111.344 113.816,108.511 119.5,106.5 Z"/></g>
<g><path style="opacity:0.971" fill="#8a5932" d="M 51.5,133.5 C 60.9008,132.578 69.5674,134.578 77.5,139.5C 76.6667,139.833 75.8333,140.167 75,140.5C 72.7825,139.782 70.6159,139.282 68.5,139C 70.5628,140.572 71.2294,142.405 70.5,144.5C 67.7604,141.752 64.7604,139.418 61.5,137.5C 59.2956,137.527 58.4622,138.527 59,140.5C 68.8995,143.715 68.7328,144.882 58.5,144C 54.3884,142.39 51.3884,139.556 49.5,135.5C 50.2427,134.818 50.9094,134.151 51.5,133.5 Z"/></g>
<g><path style="opacity:0.942" fill="#8b5932" d="M 46.5,136.5 C 49.6465,137.755 49.9799,139.421 47.5,141.5C 45.5764,140.035 45.2431,138.368 46.5,136.5 Z"/></g>
<g><path style="opacity:0.982" fill="#835834" d="M 43.5,139.5 C 44.8366,140.315 45.8366,141.482 46.5,143C 42.7632,144.753 41.7632,143.587 43.5,139.5 Z"/></g>
<g><path style="opacity:0.974" fill="#8a5932" d="M 39.5,143.5 C 40.5983,144.601 40.765,145.934 40,147.5C 37.1939,154.446 33.8606,161.112 30,167.5C 29.0975,168.701 27.9308,169.535 26.5,170C 22.1287,170.828 17.7953,170.661 13.5,169.5C 22.4939,161.173 31.1606,152.506 39.5,143.5 Z"/></g>
<g><path style="opacity:0.989" fill="#8b5932" d="M 14.5,172.5 C 35.4562,173.087 56.4562,173.92 77.5,175C 79.5,179.667 81.5,184.333 83.5,189C 60.2358,184.347 36.9025,179.681 13.5,175C 13.1667,174.667 12.8333,174.333 12.5,174C 13.4158,173.722 14.0825,173.222 14.5,172.5 Z"/></g>
<g><path style="opacity:0.979" fill="#8b5932" d="M 200.5,286.5 C 199.833,286.5 199.5,286.167 199.5,285.5C 225.267,265.224 244.434,239.89 257,209.5C 259.466,203.268 261.633,196.934 263.5,190.5C 259.813,187.647 256.647,184.314 254,180.5C 253.333,179.167 253.333,177.833 254,176.5C 260.792,171.964 267.958,171.631 275.5,175.5C 275.291,176.086 274.957,176.586 274.5,177C 275.793,177.49 277.127,177.657 278.5,177.5C 276.931,182.272 274.098,186.272 270,189.5C 259.07,230.727 235.903,263.061 200.5,286.5 Z"/></g>
<g><path style="opacity:0.991" fill="#8b5932" d="M 88.5,174.5 C 92.8461,174.334 97.1794,174.501 101.5,175C 117.305,189.804 132.805,204.971 148,220.5C 148.264,225.863 148.764,231.197 149.5,236.5C 149.167,237.167 148.833,237.833 148.5,238.5C 128.876,217.708 109.043,197.042 89,176.5C 88.5357,175.906 88.369,175.239 88.5,174.5 Z"/></g>
<g><path style="opacity:0.993" fill="#8b5932" d="M 106.5,174.5 C 112.176,174.334 117.843,174.501 123.5,175C 135.193,183.182 146.527,191.848 157.5,201C 155.127,205.581 152.627,210.081 150,214.5C 149.282,215.451 148.449,215.617 147.5,215C 133.28,201.946 119.613,188.446 106.5,174.5 Z"/></g>
<g><path style="opacity:0.995" fill="#8b5932" d="M 128.5,175.5 C 164.664,174.336 200.998,174.169 237.5,175C 237.957,175.414 238.291,175.914 238.5,176.5C 237.286,178.069 235.619,178.902 233.5,179C 203.166,181.359 172.833,183.359 142.5,185C 137.952,181.612 133.286,178.445 128.5,175.5 Z"/></g>
<g><path style="opacity:0.99" fill="#8a5932" d="M 248.5,174.5 C 249.833,174.5 251.167,174.5 252.5,174.5C 252.5,178.5 250.5,180.5 246.5,180.5C 246.253,178.142 246.919,176.142 248.5,174.5 Z"/></g>
<g><path style="opacity:0.255" fill="#4f4334" d="M 83.5,176.5 C 82.8333,176.5 82.5,176.833 82.5,177.5C 81.4265,176.749 81.2599,175.749 82,174.5C 82.7172,175.044 83.2172,175.711 83.5,176.5 Z"/></g>
<g><path style="opacity:0.976" fill="#8a5932" d="M 241.5,174.5 C 242.5,174.5 243.5,174.5 244.5,174.5C 244.705,179.494 242.705,180.994 238.5,179C 239.386,177.385 240.386,175.885 241.5,174.5 Z"/></g>
<g><path style="opacity:0.993" fill="#8b5932" d="M 83.5,176.5 C 105.799,198.967 127.966,221.633 150,244.5C 151.31,247.503 151.476,250.503 150.5,253.5C 135.482,247.906 120.648,241.906 106,235.5C 97.867,216.263 90.0336,196.93 82.5,177.5C 82.5,176.833 82.8333,176.5 83.5,176.5 Z"/></g>
<g><path style="opacity:1" fill="#6c492d" d="M 273.5,177.5 C 273.631,178.376 273.298,179.043 272.5,179.5C 270.556,180.189 268.556,180.689 266.5,181C 265.91,182.509 265.244,184.009 264.5,185.5C 263.06,182.772 263.726,180.605 266.5,179C 268.92,178.71 271.254,178.21 273.5,177.5 Z"/></g>
<g><path style="opacity:0.357" fill="#61503c" d="M 199.5,285.5 C 199.5,286.167 199.833,286.5 200.5,286.5C 196.7,290.062 192.366,292.562 187.5,294C 191.383,290.902 195.383,288.068 199.5,285.5 Z"/></g>
</svg>
